<svg id="page100" xmlns:ev="http://www.w3.org/2001/xml-events" height="230" width="947" ed:name="页面-1" xmlns:xlink="http://www.w3.org/1999/xlink" xmlns="http://www.w3.org/2000/svg" ed:vSpacing="30" xmlns:ed="https://www.edrawsoft.com/xml/2017/SVGExtensions/" ed:hSpacing="30" viewBox="0 0 947 230"><style type="text/css"><![CDATA[
g[ed\:togtopicid],g[ed\:hyperlink],g[ed\:comment],g[ed\:note] {cursor:pointer;}
g[id] {-moz-user-select: none;-ms-user-select: none;user-select: none;}
svg text::selection,svg tspan::selection{background-color: #4285f4;color: #ffffff;fill: #ffffff;}
.st6 {fill:#ffffff;font-family:微软雅黑;font-size:10pt}
.st5 {fill:#ffffff;font-family:微软雅黑;font-size:14pt;font-weight:bold}
.st4 {fill:#ffffff;font-family:微软雅黑;font-size:18pt;font-weight:bold}
]]></style><defs/><rect x="0" height="230" width="947" fill="#1b222b" y="0"/><path ed:parentid="101" ed:tosuperid="108" stroke-linejoin="round" transform="matrix(1,0,0,1,313.78,67.26)" stroke="#f5c759" id="109" stroke-linecap="round" fill="#f5c759" d="M39.5,-0.9C38.1,0.2,38,1.9,39,3C39.9,4,41.5,4,42.9,2.8C44.6,1.3,46.3,-0.2,48,-1.7C49.8,-3.1,51.6,-4.5,53.5,-5.8C55.3,-7.1,57.3,-8.4,59.2,-9.6C61.2,-10.8,63.2,-11.9,65.2,-13C67.2,-14.1,69.3,-15.1,71.4,-16.1C73.5,-17,75.6,-17.9,77.7,-18.7C79.9,-19.6,82,-20.4,84.2,-21.1C86.4,-21.8,88.7,-22.4,90.9,-23C93.1,-23.6,95.4,-24.1,97.7,-24.6C99.9,-25,102.2,-25.4,104.5,-25.7C106.8,-26,109.1,-26.3,111.4,-26.5C113.8,-26.7,116.2,-26.8,118.6,-26.9C119,-26.9,119.2,-27.1,119.2,-27.4C119.2,-27.6,119,-27.9,118.6,-27.9C116.2,-27.9,113.7,-27.9,111.3,-27.8C109,-27.8,106.6,-27.6,104.3,-27.4C102,-27.2,99.6,-26.9,97.3,-26.5C95,-26.2,92.7,-25.8,90.4,-25.3C88.1,-24.8,85.8,-24.2,83.5,-23.6C81.2,-23,78.9,-22.3,76.7,-21.6C74.5,-20.8,72.2,-20,70,-19.1C67.9,-18.2,65.7,-17.3,63.5,-16.3C61.4,-15.3,59.3,-14.2,57.2,-13C55.1,-11.9,53.1,-10.7,51.1,-9.4C49.1,-8.1,47.1,-6.8,45.2,-5.4C43.2,-3.9,41.4,-2.4,39.5,-0.9z"/><path ed:parentid="101" ed:tosuperid="110" stroke-linejoin="round" transform="matrix(1,0,0,1,313.78,121.99)" stroke="#f5c759" id="111" stroke-linecap="round" fill="#f5c759" d="M42.9,-2.8C41.5,-4,39.9,-4,39,-3C38,-1.9,38.1,-0.2,39.5,0.9C41.4,2.4,43.2,3.9,45.2,5.4C47.1,6.8,49.1,8.1,51.1,9.4C53.1,10.7,55.1,11.9,57.2,13C59.3,14.2,61.4,15.3,63.5,16.3C65.7,17.3,67.9,18.2,70,19.1C72.2,20,74.5,20.8,76.7,21.6C78.9,22.3,81.2,23,83.5,23.6C85.8,24.2,88.1,24.8,90.4,25.3C92.7,25.8,95,26.2,97.3,26.5C99.6,26.9,102,27.2,104.3,27.4C106.6,27.6,109,27.8,111.3,27.8C113.7,27.9,116.2,27.9,118.6,27.9C119,27.9,119.2,27.6,119.2,27.4C119.2,27.1,119,26.9,118.6,26.9C116.2,26.8,113.8,26.7,111.4,26.5C109.1,26.3,106.8,26,104.5,25.7C102.2,25.4,99.9,25,97.7,24.6C95.4,24.1,93.1,23.6,90.9,23C88.7,22.4,86.4,21.8,84.2,21.1C82,20.4,79.9,19.6,77.7,18.7C75.6,17.9,73.5,17,71.4,16.1C69.3,15.1,67.2,14.1,65.2,13C63.2,11.9,61.2,10.8,59.2,9.6C57.3,8.4,55.3,7.1,53.5,5.8C51.6,4.5,49.8,3.1,48,1.7C46.3,0.2,44.6,-1.3,42.9,-2.8z"/><path ed:parentid="110" ed:tosuperid="116" stroke-linejoin="round" transform="matrix(1,0,0,1,598.33,126.92)" stroke-width="2" stroke="#f5c759" id="117" stroke-linecap="round" fill="none" d="M-17.5,22.4L-6.5,22.4C-6.5,4.5,3.1,-22.4,17.5,-22.4"/><path ed:parentid="110" ed:tosuperid="118" stroke-linejoin="round" transform="matrix(1,0,0,1,598.33,141.88)" stroke-width="2" stroke="#f5c759" id="119" stroke-linecap="round" fill="none" d="M-6.5,7.5C-6.5,1.5,3.1,-7.5,17.5,-7.5"/><path ed:parentid="110" ed:tosuperid="120" stroke-linejoin="round" transform="matrix(1,0,0,1,598.33,156.83)" stroke-width="2" stroke="#f5c759" id="121" stroke-linecap="round" fill="none" d="M-6.5,-7.5C-6.5,-1.5,3.1,7.5,17.5,7.5"/><path ed:parentid="110" ed:tosuperid="122" stroke-linejoin="round" transform="matrix(1,0,0,1,598.33,171.78)" stroke-width="2" stroke="#f5c759" id="123" stroke-linecap="round" fill="none" d="M-6.5,-22.4C-6.5,-4.5,3.1,22.4,17.5,22.4"/><g ed:layout="map" transform="matrix(1,0,0,1,21,63.23)" ed:topictype="mainidea" id="101" ed:width="348.376" ed:height="62.8"><path fill-opacity="0.95" fill="#b60717" d="M31.4,0L317,0C334.3,0,348.4,14.1,348.4,31.4C348.4,48.7,334.3,62.8,317,62.8L31.4,62.8C14.1,62.8,0,48.7,0,31.4C0,14.1,14.1,0,31.4,0z"/><text class="st4"><tspan x="25" style="white-space:pre" y="40.5">中国特色社会主义理论体系 </tspan></text></g><g ed:parentid="101" ed:layout="rightmap" transform="matrix(1,0,0,1,432.38,20)" id="108" ed:width="378.8" ed:height="39.8"><text class="st5"><tspan x="18" style="white-space:pre" y="27.6">邓小平理论|3个重要代表思想|科学发展观 </tspan></text></g><g ed:parentid="101" ed:layout="rightmap" transform="matrix(1,0,0,1,432.38,129.45)" id="110" ed:width="148.4" ed:height="39.8"><text class="st5"><tspan x="18" style="white-space:pre" y="27.6">新时代新思想</tspan></text></g><g ed:parentid="110" ed:layout="rightmap" transform="matrix(1,0,0,1,615.88,92.8)" id="116" ed:width="200.8" ed:height="23.4"><text class="st6"><tspan x="9" style="white-space:pre" y="16.9">新时代的新思想及其历史地位 </tspan></text></g><g ed:parentid="110" ed:layout="rightmap" transform="matrix(1,0,0,1,615.88,122.7)" id="118" ed:width="228" ed:height="23.4"><text class="st6"><tspan x="9" style="white-space:pre" y="16.9">新时代中国特色社会主义的总任务 </tspan></text></g><g ed:parentid="110" ed:layout="rightmap" transform="matrix(1,0,0,1,615.88,152.6)" id="120" ed:width="214.4" ed:height="23.4"><text class="st6"><tspan x="9" style="white-space:pre" y="16.9">新时代中国特色社会主义的布局 </tspan></text></g><g ed:parentid="110" ed:layout="rightmap" transform="matrix(1,0,0,1,615.88,182.5)" id="122" ed:width="309.6" ed:height="23.4"><text class="st6"><tspan x="9" style="white-space:pre" y="16.9">新时代中国特色社会主义的内外条件和领导核心 </tspan></text></g></svg>