<svg viewBox="0 0 355 229" xmlns:ed="https://www.edrawsoft.com/xml/2017/SVGExtensions/" ed:hSpacing="30" xmlns:ev="http://www.w3.org/2001/xml-events" ed:name="页面-1" id="page100" xmlns:xlink="http://www.w3.org/1999/xlink" height="229" xmlns="http://www.w3.org/2000/svg" ed:vSpacing="30" width="355"><style type="text/css"><![CDATA[
g[ed\:togtopicid],g[ed\:hyperlink],g[ed\:comment],g[ed\:note] {cursor:pointer;}
g[id] {-moz-user-select: none;-ms-user-select: none;user-select: none;}
svg text::selection,svg tspan::selection{background-color: #4285f4;color: #ffffff;fill: #ffffff;}
.st2 {fill:#ffffff;font-family:微软雅黑;font-size:14pt;font-weight:bold}
.st1 {fill:#ffffff;font-family:微软雅黑;font-size:18pt;font-weight:bold}
]]></style><defs/><rect y="0" height="229" fill="#1b222b" x="0" width="355"/><path ed:tosuperid="108" transform="matrix(1,0,0,1,182.98,76.3)" d="M-4.8,8.5C-5.8,10,-5.5,11.6,-4.3,12.3C-3.1,13.1,-1.5,12.7,-0.6,11.1C0.6,9.2,1.8,7.3,3.1,5.4C4.4,3.5,5.8,1.7,7.2,-0.1C8.6,-1.9,10.1,-3.6,11.7,-5.3C13.2,-7,14.8,-8.6,16.5,-10.2C18.1,-11.8,19.8,-13.4,21.6,-14.8C23.3,-16.3,25.1,-17.7,27,-19.1C28.8,-20.4,30.7,-21.7,32.7,-22.9C34.6,-24.2,36.6,-25.3,38.7,-26.4C40.7,-27.4,42.8,-28.4,44.9,-29.3C47,-30.2,49.2,-31.1,51.4,-31.8C53.6,-32.5,55.8,-33.2,58,-33.7C60.2,-34.2,62.4,-34.7,64.8,-35C67.3,-35.4,70,-35.6,71.7,-35.8C73.5,-35.9,74.2,-35.9,75,-35.9C75.4,-35.9,75.6,-36.1,75.6,-36.4C75.6,-36.7,75.4,-36.9,75,-36.9C74.2,-36.9,73.5,-37,71.7,-36.9C69.9,-36.8,67.1,-36.7,64.6,-36.5C62.1,-36.2,59.9,-35.9,57.7,-35.4C55.4,-34.9,53.1,-34.4,50.8,-33.7C48.5,-33.1,46.3,-32.3,44,-31.5C41.8,-30.7,39.7,-29.7,37.5,-28.7C35.4,-27.7,33.3,-26.6,31.2,-25.5C29.1,-24.3,27.1,-23,25.1,-21.7C23.2,-20.4,21.2,-19,19.4,-17.6C17.5,-16.1,15.7,-14.6,13.9,-13C12.1,-11.5,10.4,-9.8,8.7,-8.1C7,-6.5,5.4,-4.7,3.8,-2.9C2.3,-1.1,0.7,0.7,-0.7,2.6C-2.1,4.5,-3.5,6.5,-4.8,8.5z" stroke="#f8c15a" stroke-linejoin="round" id="109" fill="#f8c15a" ed:parentid="101" stroke-linecap="round"/><path ed:tosuperid="110" transform="matrix(1,0,0,1,182.98,112.7)" d="M12,-2.5C10.2,-2.6,9,-1.4,9,0C9,1.4,10.2,2.6,12,2.5L75,0.5C75.4,0.5,75.6,0.3,75.6,0C75.6,-0.3,75.4,-0.5,75,-0.5L12,-2.5z" stroke="#f8c15a" stroke-linejoin="round" id="111" fill="#f8c15a" ed:parentid="101" stroke-linecap="round"/><path ed:tosuperid="112" transform="matrix(1,0,0,1,182.98,149.1)" d="M-0.6,-11.1C-1.5,-12.7,-3.1,-13.1,-4.3,-12.3C-5.5,-11.6,-5.8,-10,-4.8,-8.5C-3.5,-6.5,-2.1,-4.5,-0.7,-2.6C0.7,-0.7,2.3,1.1,3.8,2.9C5.4,4.7,7,6.5,8.7,8.1C10.4,9.8,12.1,11.5,13.9,13C15.7,14.6,17.5,16.1,19.4,17.6C21.2,19,23.2,20.4,25.1,21.7C27.1,23,29.1,24.3,31.2,25.5C33.3,26.6,35.4,27.7,37.5,28.7C39.7,29.7,41.8,30.7,44,31.5C46.3,32.3,48.5,33.1,50.8,33.7C53.1,34.4,55.4,34.9,57.7,35.4C59.9,35.9,62.1,36.2,64.6,36.5C67.1,36.7,69.9,36.8,71.7,36.9C73.5,37,74.2,36.9,75,36.9C75.4,36.9,75.6,36.7,75.6,36.4C75.6,36.1,75.4,35.9,75,35.9C74.2,35.9,73.5,35.9,71.7,35.8C70,35.6,67.3,35.4,64.8,35C62.4,34.7,60.2,34.2,58,33.7C55.8,33.2,53.6,32.5,51.4,31.8C49.2,31.1,47,30.2,44.9,29.3C42.8,28.4,40.7,27.4,38.7,26.4C36.6,25.3,34.6,24.2,32.7,22.9C30.7,21.7,28.8,20.4,27,19.1C25.1,17.7,23.3,16.3,21.6,14.8C19.8,13.4,18.1,11.8,16.5,10.2C14.8,8.6,13.2,7,11.7,5.3C10.1,3.6,8.6,1.9,7.2,0.1C5.8,-1.7,4.4,-3.5,3.1,-5.4C1.8,-7.3,0.6,-9.2,-0.6,-11.1z" stroke="#f8c15a" stroke-linejoin="round" id="113" fill="#f8c15a" ed:parentid="101" stroke-linecap="round"/><g transform="matrix(1,0,0,1,21,81.3)" ed:layout="rightmap" ed:width="173.976" id="101" ed:topictype="mainidea" ed:height="62.8"><path d="M31.4,0L142.6,0C159.9,0,174,14.1,174,31.4C174,48.7,159.9,62.8,142.6,62.8L31.4,62.8C14.1,62.8,0,48.7,0,31.4C0,14.1,14.1,0,31.4,0z" fill="#b60717" fill-opacity="0.95"/><text class="st1"><tspan y="40.5" style="white-space:pre" x="25">毛泽东思想</tspan></text></g><g transform="matrix(1,0,0,1,257.98,20)" ed:width="74.8" id="108" ed:height="39.8" ed:parentid="101"><text class="st2"><tspan y="27.6" style="white-space:pre" x="18">革命</tspan></text></g><g transform="matrix(1,0,0,1,257.98,92.8)" ed:width="74.8" id="110" ed:height="39.8" ed:parentid="101"><text class="st2"><tspan y="27.6" style="white-space:pre" x="18">改造</tspan></text></g><g transform="matrix(1,0,0,1,257.98,165.6)" ed:width="74.8" id="112" ed:height="39.8" ed:parentid="101"><text class="st2"><tspan y="27.6" style="white-space:pre" x="18">探索</tspan></text></g></svg>